<?xml version="1.0" encoding="utf-8"?>
<!DOCTYPE svg PUBLIC "-//W3C//DTD SVG 1.1//EN" "http://www.w3.org/Graphics/SVG/1.1/DTD/svg11.dtd">
<svg version="1.1" id="Layer_1" xmlns="http://www.w3.org/2000/svg" xmlns:xlink="http://www.w3.org/1999/xlink" x="0px" y="0px" width="31.984px" height="32px" viewBox="0 0 31.984 32" enable-background="new 0 0 31.984 32" xml:space="preserve">
  <g>
    <path fill="#FFFFFF" d="M31.992,16c0,8.844-7.156,16-16,16C7.164,32,0.008,24.844,0.008,16c0-8.828,7.156-16,15.984-16
    C24.836,0,31.992,7.172,31.992,16z M20.008,29c5.5-1.812,9.484-6.938,9.484-13c0-7.453-6.047-13.5-13.5-13.5
    C8.553,2.5,2.508,8.546,2.508,16c0,6.062,4,11.203,9.517,13v-2.547c-3.938,0.891-4.767-1.844-4.767-1.844
    c-0.625-1.609-1.53-2.031-1.53-2.031c-1.267-0.859,0.094-0.844,0.094-0.844c1.391,0.094,2.125,1.422,2.125,1.422
    c1.312,2.25,3.483,1.438,4.156,1.109c0.202-0.984,0.969-1.188,1.219-1.268c-3.547-0.375-7.344-1.654-7.344-7.797
    c0-1.721,0.608-3.125,1.608-4.221c-0.156-0.404-0.703-2,0.156-4.172c0,0,1.328-0.42,4.328,1.609
    c1.25-0.344,2.594-0.516,3.938-0.531c1.328,0.018,2.672,0.188,3.938,0.531c3-2.031,4.312-1.609,4.312-1.609
    c0.859,2.172,0.328,3.768,0.156,4.172c1.016,1.096,1.625,2.5,1.625,4.221c0,6.143-3.797,7.404-7.344,7.779
    c0.641,0.441,1.312,1.27,1.312,2.848V29z"/>
  </g>
</svg>
