<?xml version="1.0" encoding="utf-8"?>
<!-- Generator: Adobe Illustrator 16.0.0, SVG Export Plug-In . SVG Version: 6.00 Build 0)  -->
<!DOCTYPE svg PUBLIC "-//W3C//DTD SVG 1.1//EN" "http://www.w3.org/Graphics/SVG/1.1/DTD/svg11.dtd">
<svg version="1.1" id="Layer_1" xmlns="http://www.w3.org/2000/svg" xmlns:xlink="http://www.w3.org/1999/xlink" x="0px" y="0px"
	 width="229.377px" height="219.418px" viewBox="0 0 229.377 219.418" enable-background="new 0 0 229.377 219.418"
	 xml:space="preserve">
<g>
	<path fill="#FFFFFF" d="M0,24.474v1.138c0,11.953,6.166,20.111,18.498,24.475l6.261,0.855h5.123
		c11.952,0,20.206-6.547,24.759-19.638l0.568-5.692c0-12.142-6.546-20.396-19.637-24.759L27.035,0
		C14.133,0,5.406,6.167,0.851,18.499L0,24.474z"/>
	<rect x="3.129" y="71.431" fill="#FFFFFF" width="48.666" height="147.985"/>
	<path fill="#FFFFFF" d="M128.634,91.924h-0.568V71.432H79.4v147.986h48.666v-76.271c0-14.608,2.277-23.432,6.83-26.467
		c5.502-6.642,11.668-9.961,18.498-9.961h3.414c11.006,0,18.404,6.545,22.199,19.637c0.76,5.123,1.139,9.677,1.139,13.66v79.399
		h49.232V138.31c0-35.858-11.855-58.151-35.572-66.879c-7.969-2.276-15.367-3.416-22.197-3.416
		C153.962,68.015,139.638,75.985,128.634,91.924z"/>
</g>
</svg>
