<?xml version="1.0" encoding="utf-8"?>
<!DOCTYPE svg PUBLIC "-//W3C//DTD SVG 1.1//EN" "http://www.w3.org/Graphics/SVG/1.1/DTD/svg11.dtd">
<svg version="1.1" id="Layer_1" xmlns="http://www.w3.org/2000/svg" xmlns:xlink="http://www.w3.org/1999/xlink" x="0px" y="0px"
	 width="468.645px" height="471.896px" viewBox="0 0 468.645 471.896" enable-background="new 0 0 468.645 471.896"
	 xml:space="preserve">
<path fill="#FFFFFF" d="M400.397,69.55C357.497,26.65,298.997,0,233.998,0C169.648,0,110.499,26.65,68.25,69.55
	C26.65,112.449,0,170.949,0,235.948c0,65,26.65,123.499,68.25,166.398c42.25,43.55,101.399,69.55,165.749,69.55
	c64.999,0,123.499-26,166.399-69.55c41.6-42.899,68.248-101.398,68.248-166.398C468.645,170.949,441.997,112.449,400.397,69.55z
	 M116.349,116.999C146.898,85.8,188.498,66.95,233.998,66.95c45.499,0,88.399,18.85,118.948,50.049
	c29.9,29.9,48.75,71.5,48.75,118.949H66.949C66.949,189.148,85.799,146.899,116.349,116.999z"/>
</svg>
