<?xml version="1.0" encoding="utf-8"?>
<!DOCTYPE svg PUBLIC "-//W3C//DTD SVG 1.1//EN" "http://www.w3.org/Graphics/SVG/1.1/DTD/svg11.dtd">
<svg version="1.1" id="Layer_1" xmlns="http://www.w3.org/2000/svg" xmlns:xlink="http://www.w3.org/1999/xlink" x="0px" y="0px"
width="468.645px" height="471.896px" viewBox="0 0 468.645 471.896" enable-background="new 0 0 468.645 471.896"
xml:space="preserve">
  <path fill="#FFFFFF" d="M468.646,235.948c0-65-26.648-123.499-68.248-166.397C357.498,26,298.998,0,233.999,0
  C169.649,0,110.5,26,68.25,69.551C26.65,112.45,0,170.948,0,235.948c0,64.999,26.65,123.499,68.25,166.398
  c42.249,42.9,101.398,69.55,165.748,69.55c64.999,0,123.499-26.649,166.399-69.55C441.997,359.447,468.645,300.947,468.646,235.948z
  M66.949,235.948h334.747c0,47.449-18.851,89.049-48.75,118.949c-30.549,31.199-73.449,50.049-118.948,50.049
  c-45.5,0-87.1-18.85-117.649-50.049C85.799,324.997,66.949,282.749,66.949,235.948z"/>
</svg>
