<?xml version="1.0" encoding="utf-8"?>
<!DOCTYPE svg PUBLIC "-//W3C//DTD SVG 1.1//EN" "http://www.w3.org/Graphics/SVG/1.1/DTD/svg11.dtd">
<svg version="1.1" id="Layer_1" xmlns="http://www.w3.org/2000/svg" xmlns:xlink="http://www.w3.org/1999/xlink" x="0px" y="0px"
width="413.395px" height="108.896px" viewBox="0 0 413.395 108.896" enable-background="new 0 0 413.395 108.896"
xml:space="preserve">
<g>
<path fill="#FFFFFF" d="M138.899,106.946H123.75V1.95h12.299l34.649,50.998L205.346,1.95h12v104.996h-15V32.999l-27.449,40.798
h-8.55l-27.449-40.798V106.946z"/>
<path fill="#FFFFFF" d="M297.895,80.397h-42.598l-10.199,26.549h-16.35L270.896,0.6h11.1l42.148,106.346h-16.199L297.895,80.397z
M260.848,66.147h31.498l-15.75-41.398L260.848,66.147z"/>
<path fill="#FFFFFF" d="M355.496,53.698h17.699c12.75,0,19.051-9.149,19.051-18.299c0-9-6.301-18.149-19.051-18.149h-23.248v89.696
h-15V1.95h38.248c22.799,0,34.199,16.799,34.199,33.449c0,14.849-9.15,28.949-27.148,32.099l33.148,39.448h-19.65l-38.248-46.048
V53.698z"/>
<path fill="#FFFFFF" d="M92.396,16.049C82.497,6.15,68.997,0,53.998,0C39.148,0,25.499,6.15,15.75,16.049
C6.15,25.949,0,39.449,0,54.448c0,15,6.15,28.499,15.75,38.398c9.75,10.05,23.399,16.049,38.249,16.049
c14.999,0,28.499-6,38.398-16.049c9.6-9.899,15.749-23.399,15.749-38.398C108.146,39.449,101.996,25.949,92.396,16.049z
M26.849,26.999c7.049-7.2,16.649-11.549,27.149-11.549c10.5,0,20.399,4.35,27.449,11.549c6.899,6.9,11.25,16.5,11.25,27.449
c0,0.167-0.01,0.332-0.012,0.498H15.462c-0.002-0.167-0.013-0.331-0.013-0.498C15.449,43.648,19.799,33.899,26.849,26.999z"/>
</g>
</svg>
